<?xml version="1.0" encoding="UTF-8" standalone="no"?>
<svg
   width="120"
   height="39.253376"
   viewBox="2.86 -2064.196 120 39.253375"
   version="1.1"
   id="svg76"
   sodipodi:docname="gplay.svg"
   inkscape:version="1.2 (1:1.2+202206011327+fc4e4096c5)"
   xmlns:inkscape="http://www.inkscape.org/namespaces/inkscape"
   xmlns:sodipodi="http://sodipodi.sourceforge.net/DTD/sodipodi-0.dtd"
   xmlns:xlink="http://www.w3.org/1999/xlink"
   xmlns="http://www.w3.org/2000/svg"
   xmlns:svg="http://www.w3.org/2000/svg">
  <sodipodi:namedview
     id="namedview78"
     pagecolor="#ffffff"
     bordercolor="#111111"
     borderopacity="1"
     inkscape:showpageshadow="0"
     inkscape:pageopacity="0"
     inkscape:pagecheckerboard="1"
     inkscape:deskcolor="#d1d1d1"
     showgrid="false"
     inkscape:zoom="5.609863"
     inkscape:cx="73.085563"
     inkscape:cy="21.83654"
     inkscape:window-width="1366"
     inkscape:window-height="704"
     inkscape:window-x="0"
     inkscape:window-y="27"
     inkscape:window-maximized="1"
     inkscape:current-layer="svg76" />
  <path
     d="m 122.86,-2030.2477 c 0,2.9294 -2.37454,5.3051 -5.30345,5.3051 H 8.1646054 C 5.2354591,-2024.9424 2.86,-2027.3181 2.86,-2030.2477 v -28.6437 c 0,-2.9291 2.3754591,-5.3046 5.3046054,-5.3046 H 117.55631 c 2.92892,0 5.30346,2.3755 5.30346,5.3046 v 28.6437 z"
     id="path2"
     style="stroke-width:0.0195511" />
  <defs
     id="defs5">
    <path
       id="a"
       d="m 1332.988,884.566 -276.756,-159.78 c 0,0 -504.191,-291.132 -533.832,-308.244 -29.64,-17.112 -59.172,-6.744 -59.172,29.016 v 1255.813 c 0,26.808 21.107,38.364 46.859,23.508 25.74,-14.88 546.145,-315.348 546.145,-315.348 l 276.744,-159.769 c 0,0 234.816,-135.563 266.027,-153.576 31.213,-18.036 28.213,-42.756 1.873,-56.939 -26.328,-14.197 -267.888,-154.681 -267.888,-154.681 z" />
  </defs>
  <clipPath
     id="b">
    <use
       xlink:href="#a"
       overflow="visible"
       id="use7" />
  </clipPath>
  <linearGradient
     id="c"
     gradientUnits="userSpaceOnUse"
     x1="1451.479"
     y1="2452.512"
     x2="1451.479"
     y2="2339.209"
     gradientTransform="matrix(12,0,0,-12,-16611.705,29817.492)">
    <stop
       offset="0"
       stop-color="#257cb0"
       id="stop10" />
    <stop
       offset=".286"
       stop-color="#4a93b5"
       id="stop12" />
    <stop
       offset=".767"
       stop-color="#78bcbb"
       id="stop14" />
    <stop
       offset="1"
       stop-color="#89cfbd"
       id="stop16" />
  </linearGradient>
  <path
     clip-path="url(#b)"
     fill="url(#c)"
     d="M 463.24,387.346 V 1746.982 L 1148.848,1067.17 Z"
     id="path19"
     style="fill:url(#c)"
     transform="matrix(0.0195511,0,0,0.0195511,2.8040838,-2064.2119)" />
  <defs
     id="defs22">
    <path
       id="d"
       d="m 1332.988,884.566 -276.756,-159.78 c 0,0 -504.191,-291.132 -533.832,-308.244 -29.64,-17.112 -59.172,-6.744 -59.172,29.016 v 1255.813 c 0,26.808 21.107,38.364 46.859,23.508 25.74,-14.88 546.145,-315.348 546.145,-315.348 l 276.744,-159.769 c 0,0 234.816,-135.563 266.027,-153.576 31.213,-18.036 28.213,-42.756 1.873,-56.939 -26.328,-14.197 -267.888,-154.681 -267.888,-154.681 z" />
  </defs>
  <clipPath
     id="e">
    <use
       xlink:href="#d"
       overflow="visible"
       id="use24" />
  </clipPath>
  <linearGradient
     id="f"
     gradientUnits="userSpaceOnUse"
     x1="1422.913"
     y1="2424.3931"
     x2="1495.392"
     y2="2424.3931"
     gradientTransform="matrix(12,0,0,-12,-16611.705,29817.492)">
    <stop
       offset="0"
       stop-color="#52c1ad"
       id="stop27" />
    <stop
       offset="1"
       stop-color="#dee89a"
       id="stop29" />
  </linearGradient>
  <path
     clip-path="url(#e)"
     fill="url(#f)"
     d="M 1332.988,884.566 1056.232,724.786 463.24,382.402 v 4.944 l 685.608,679.824 z"
     id="path32"
     style="fill:url(#f)"
     transform="matrix(0.0195511,0,0,0.0195511,2.8040838,-2064.2119)" />
  <defs
     id="defs35">
    <path
       id="g"
       d="m 1332.988,884.566 -276.756,-159.78 c 0,0 -504.191,-291.132 -533.832,-308.244 -29.64,-17.112 -59.172,-6.744 -59.172,29.016 v 1255.813 c 0,26.808 21.107,38.364 46.859,23.508 25.74,-14.88 546.145,-315.348 546.145,-315.348 l 276.744,-159.769 c 0,0 234.816,-135.563 266.027,-153.576 31.213,-18.036 28.213,-42.756 1.873,-56.939 -26.328,-14.197 -267.888,-154.681 -267.888,-154.681 z" />
  </defs>
  <clipPath
     id="h">
    <use
       xlink:href="#g"
       overflow="visible"
       id="use37" />
  </clipPath>
  <linearGradient
     id="i"
     gradientUnits="userSpaceOnUse"
     x1="1459.151"
     y1="2395.8601"
     x2="1459.151"
     y2="2338.7971"
     gradientTransform="matrix(12,0,0,-12,-16611.705,29817.492)">
    <stop
       offset="0"
       stop-color="#ec413d"
       id="stop40" />
    <stop
       offset=".167"
       stop-color="#da4452"
       id="stop42" />
    <stop
       offset=".575"
       stop-color="#b0487a"
       id="stop44" />
    <stop
       offset=".862"
       stop-color="#954a92"
       id="stop46" />
    <stop
       offset="1"
       stop-color="#8a4a9d"
       id="stop48" />
  </linearGradient>
  <path
     clip-path="url(#h)"
     fill="url(#i)"
     d="m 463.24,1746.982 v 4.944 l 592.992,-342.396 276.744,-159.78 -184.128,-182.58 z"
     id="path51"
     style="fill:url(#i)"
     transform="matrix(0.0195511,0,0,0.0195511,2.8040838,-2064.2119)" />
  <defs
     id="defs54">
    <path
       id="j"
       d="m 1332.988,884.566 -276.756,-159.78 c 0,0 -504.191,-291.132 -533.832,-308.244 -29.64,-17.112 -59.172,-6.744 -59.172,29.016 v 1255.813 c 0,26.808 21.107,38.364 46.859,23.508 25.74,-14.88 546.145,-315.348 546.145,-315.348 l 276.744,-159.769 c 0,0 234.816,-135.563 266.027,-153.576 31.213,-18.036 28.213,-42.756 1.873,-56.939 -26.328,-14.197 -267.888,-154.681 -267.888,-154.681 z" />
  </defs>
  <clipPath
     id="k">
    <use
       xlink:href="#j"
       overflow="visible"
       id="use56" />
  </clipPath>
  <linearGradient
     id="l"
     gradientUnits="userSpaceOnUse"
     x1="1500.897"
     y1="2411.0769"
     x2="1500.897"
     y2="2380.646"
     gradientTransform="matrix(12,0,0,-12,-16611.705,29817.492)">
    <stop
       offset="0"
       stop-color="#f58879"
       id="stop59" />
    <stop
       offset=".119"
       stop-color="#f69079"
       id="stop61" />
    <stop
       offset=".713"
       stop-color="#fcb877"
       id="stop63" />
    <stop
       offset="1"
       stop-color="#fec874"
       id="stop65" />
  </linearGradient>
  <path
     clip-path="url(#k)"
     fill="url(#l)"
     d="m 1332.988,884.566 -184.14,182.604 184.128,182.58 316.283,-182.592 z"
     id="path68"
     style="fill:url(#l)"
     transform="matrix(0.0195511,0,0,0.0195511,2.8040838,-2064.2119)" />
  <path
     d="m 96.249677,-2038.1514 c -0.50348,0 -0.962852,-0.093 -1.378822,-0.2784 -0.415969,-0.1858 -0.765523,-0.4716 -1.047782,-0.8568 h -0.08444 c 0.05629,0.4514 0.08444,0.8793 0.08444,1.2835 v 3.1811 h -1.170251 v -11.2011 h 0.95206 l 0.161884,1.0581 h 0.05631 c 0.301224,-0.4235 0.651755,-0.7287 1.051282,-0.9169 0.399566,-0.1881 0.858215,-0.2822 1.375068,-0.2822 1.02526,0 1.816611,0.3505 2.373582,1.0511 0.557207,0.7005 0.835927,1.6836 0.835927,2.9481 0,1.2697 -0.283412,2.2558 -0.849534,2.9594 -0.566572,0.7029 -1.352995,1.0541 -2.359721,1.0541 z m -0.16939,-7.0182 c -0.789943,0 -1.361226,0.2189 -1.71385,0.656 -0.352624,0.4373 -0.533745,1.1334 -0.543364,2.0881 v 0.2606 c 0,1.0865 0.181121,1.8636 0.543364,2.3316 0.362243,0.4681 0.943145,0.7015 1.742003,0.7015 0.668179,0 1.191386,-0.27 1.570052,-0.8108 0.378196,-0.5406 0.56751,-1.2859 0.56751,-2.2363 0,-0.9636 -0.189333,-1.7036 -0.56751,-2.2183 -0.378451,-0.5152 -0.911492,-0.7724 -1.598205,-0.7724 z m 6.089853,6.877 h -1.17074 v -10.9752 h 1.17074 z m 6.73176,0 -0.23297,-1.1003 h -0.0563 c -0.38572,0.4847 -0.77002,0.8129 -1.15336,0.9839 -0.38312,0.172 -0.86173,0.2577 -1.43513,0.2577 -0.76646,0 -1.36709,-0.1976 -1.80229,-0.5924 -0.43521,-0.3949 -0.65246,-0.9566 -0.65246,-1.6857 0,-1.5609 1.24861,-2.3793 3.74534,-2.4548 l 1.31245,-0.043 v -0.4795 c 0,-0.6067 -0.1307,-1.0548 -0.39183,-1.3436 -0.26065,-0.2896 -0.67873,-0.4341 -1.25187,-0.4341 -0.6445,0 -1.37343,0.1976 -2.18662,0.5924 l -0.35987,-0.8957 c 0.38124,-0.207 0.79815,-0.3691 1.25236,-0.4866 0.45374,-0.1176 0.90842,-0.1764 1.36475,-0.1764 0.92158,0 1.60452,0.2043 2.04913,0.6135 0.44412,0.4091 0.6663,1.0651 0.6663,1.9682 v 5.2757 h -0.8676 v 2e-4 z m -2.64503,-0.8249 c 0.72847,0 1.30093,-0.1999 1.71737,-0.5994 0.41575,-0.3996 0.62432,-0.9594 0.62432,-1.6792 v -0.6982 l -1.17142,0.049 c -0.93094,0.034 -1.60172,0.1776 -2.01368,0.4345 -0.41128,0.2562 -0.61706,0.6548 -0.61706,1.1956 0,0.423 0.12787,0.7453 0.38455,0.9658 0.25642,0.2213 0.61467,0.3318 1.07592,0.3318 z m 4.1923,-6.9056 h 1.25519 l 1.69298,4.4086 c 0.3714,1.0065 0.602,1.7329 0.69162,2.1798 h 0.0563 c 0.0612,-0.2402 0.18955,-0.6501 0.38428,-1.2315 0.1952,-0.5809 0.83379,-2.3661 1.91491,-5.3569 h 1.25612 l -3.32259,8.8029 c -0.32893,0.87 -0.71344,1.4872 -1.1536,1.8523 -0.43943,0.3641 -0.97927,0.5459 -1.61812,0.5459 -0.35755,0 -0.71018,-0.04 -1.05858,-0.1196 v -0.938 c 0.25853,0.056 0.54804,0.085 0.86784,0.085 0.80425,0 1.37741,-0.4514 1.72112,-1.3544 l 0.43005,-1.1001 z m -35.889272,0.7184 c 0.371647,0.3076 1.147748,0.9537 1.147748,2.1833 0,1.1958 -0.679205,1.7629 -1.358411,2.2957 -0.210213,0.21 -0.452803,0.4371 -0.452803,0.7932 0,0.355 0.242355,0.5493 0.420896,0.6949 l 0.58231,0.4519 c 0.711347,0.5985 1.357472,1.1487 1.357472,2.2647 0,1.5198 -1.471494,3.0554 -4.25213,3.0554 -2.34494,0 -3.476245,-1.1154 -3.476245,-2.3126 0,-0.5818 0.289728,-1.406 1.245092,-1.9726 1.001799,-0.6145 2.360913,-0.6945 3.088195,-0.7442 -0.227086,-0.2907 -0.485161,-0.598 -0.485161,-1.0985 0,-0.2745 0.08118,-0.4363 0.161668,-0.6313 -0.17856,0.016 -0.356162,0.033 -0.518026,0.033 -1.7134,0 -2.683506,-1.2775 -2.683506,-2.538 0,-0.744 0.339955,-1.5691 1.03441,-2.1667 0.92201,-0.7599 2.021408,-0.8897 2.895362,-0.8897 h 3.3301 l -1.034898,0.5821 h -1.002053 v -2e-4 z m -1.148431,7.1796 c -0.129253,-0.017 -0.210449,-0.017 -0.371393,-0.017 -0.145441,0 -1.019844,0.033 -1.698111,0.26 -0.355654,0.1283 -1.390807,0.5164 -1.390807,1.665 0,1.1475 1.116309,1.9734 2.846582,1.9734 1.551263,0 2.376847,-0.7454 2.376847,-1.747 2e-5,-0.8263 -0.533725,-1.261 -1.763118,-2.1345 z m 0.469226,-3.0727 c 0.371393,-0.3723 0.40332,-0.8892 0.40332,-1.1806 0,-1.1639 -0.694944,-2.9749 -2.036678,-2.9749 -0.420915,0 -0.87323,0.21 -1.132009,0.5338 -0.274517,0.3395 -0.356162,0.7756 -0.356162,1.1965 0,1.0832 0.63064,2.8782 2.021897,2.8782 0.404258,0 0.839935,-0.194 1.099632,-0.453 z m -9.500409,2.8139 c -2.566434,0 -3.938668,-2.0019 -3.938668,-3.8103 0,-2.1151 1.726989,-3.9223 4.181747,-3.9223 2.37192,0 3.857276,1.8558 3.857276,3.8097 2.15e-4,1.9041 -1.468229,3.9229 -4.100355,3.9229 z m 2.017693,-1.3075 c 0.388051,-0.517 0.484926,-1.1625 0.484926,-1.7926 0,-1.4211 -0.678032,-4.1327 -2.679987,-4.1327 -0.532552,0 -1.065124,0.2102 -1.452471,0.5499 -0.629721,0.5642 -0.743254,1.2749 -0.743254,1.9698 0,1.597 0.791096,4.2277 2.744955,4.2277 0.629467,0 1.275338,-0.3061 1.645831,-0.8221 z m -10.767594,1.3075 c -2.566923,0 -3.939391,-2.0019 -3.939391,-3.8103 0,-2.1151 1.727673,-3.9223 4.181747,-3.9223 2.372643,0 3.857726,1.8558 3.857726,3.8097 2.54e-4,1.9041 -1.468425,3.9229 -4.100082,3.9229 z m 2.018143,-1.3075 c 0.387347,-0.517 0.484477,-1.1625 0.484477,-1.7926 0,-1.4211 -0.678521,-4.1327 -2.680476,-4.1327 -0.532338,0 -1.065359,0.2102 -1.452491,0.5499 -0.629702,0.5642 -0.742551,1.2749 -0.742551,1.9698 0,1.597 0.790647,4.2277 2.74476,4.2277 0.629702,0 1.275143,-0.3061 1.646281,-0.8221 z m -7.190661,1.0544 -2.321283,0.5356 c -0.941737,0.1464 -1.785387,0.2752 -2.677621,0.2752 -4.480175,0 -6.183701,-3.2949 -6.183701,-5.8756 0,-3.1483 2.417924,-6.069 6.557205,-6.069 0.87675,0 1.719969,0.1295 2.482677,0.3407 1.217174,0.3409 1.785192,0.7624 2.142488,1.0062 l -1.347618,1.2822 -0.567764,0.1292 0.405646,-0.6494 c -0.551575,-0.5351 -1.55877,-1.525 -3.473214,-1.525 -2.564557,0 -4.496343,1.9485 -4.496343,4.7885 0,3.0504 2.20771,5.9233 5.745189,5.9233 1.039806,0 1.574275,-0.2107 2.061547,-0.4059 v -2.6124 l -2.450301,0.1297 1.29788,-0.6986 h 3.441073 l -0.4216,0.4056 c -0.114472,0.098 -0.130191,0.1307 -0.162568,0.2593 -0.01689,0.1464 -0.03214,0.6175 -0.03214,0.7796 v 1.9808 h 4.5e-4 z"
     fill="#f9f9f9"
     id="path70"
     style="stroke-width:0.0195511" />
  <path
     d="m 79.689736,-2039.1043 c -0.535856,-0.049 -0.648021,-0.1457 -0.648021,-0.7794 v -9.1861 c 0.0033,-0.035 0.0054,-0.071 0.0087,-0.1046 0.06548,-0.5678 0.227595,-0.6652 0.73129,-0.9577 h -2.321694 l -1.217623,0.5844 h 1.240869 v 0.01 l -9.38e-4,-0.01 v 10.0201 c 0,0.324 -0.06405,0.3733 -0.437808,0.8596 h 2.873093 l 0.600591,-0.3561 c -0.275671,-0.034 -0.552045,-0.049 -0.82842,-0.082 z m 6.604344,0.1492 c -0.176645,0.097 -0.354012,0.2102 -0.530696,0.2902 -0.532806,0.2416 -1.080609,0.3064 -1.565104,0.3064 -0.514507,0 -1.321108,-0.033 -2.143896,-0.629 -1.143486,-0.8066 -1.643212,-2.1927 -1.643212,-3.4012 0,-2.4979 2.030793,-3.7228 3.690916,-3.7228 0.580433,0 1.177544,0.1447 1.661062,0.4516 0.805212,0.5309 1.014683,1.224 1.126847,1.5949 l -3.786873,1.5318 -1.241338,0.097 c 0.402362,2.047 1.788476,3.2389 3.320246,3.2389 0.821851,0 1.418472,-0.2895 1.966294,-0.5631 z m -1.514644,-4.804 c 0.305701,-0.1124 0.466861,-0.2095 0.466861,-0.4349 0,-0.6443 -0.724955,-1.3861 -1.596074,-1.3861 -0.645441,0 -1.853445,0.4999 -1.853445,2.2403 0,0.274 0.03238,0.564 0.04904,0.8551 z m 3.070364,-2.2422 v 1.0635 h -0.129252 v -1.0635 h -0.35192 v -0.1103 h 0.832877 v 0.1103 z m 1.449929,1.0635 v -1.0733 h -0.0059 l -0.32752,1.0733 h -0.101083 l -0.330336,-1.0733 h -0.0042 v 1.0733 h -0.117307 v -1.1737 h 0.201064 l 0.298897,0.9487 h 0.0042 l 0.29444,-0.9487 h 0.203898 v 1.1737 z"
     fill="#f9f9f9"
     id="path72"
     style="stroke-width:0.0195511" />
  <path
     d="m 42.498846,-2052.931 h -0.806601 c 0,-0.111 -0.07648,-0.4252 -0.229452,-0.9427 h -1.164405 c -0.157875,0.5091 -0.236939,0.8232 -0.236939,0.9427 h -0.758505 c 0,-0.066 0.196137,-0.6033 0.58841,-1.613 0.392254,-1.0098 0.58841,-1.5661 0.58841,-1.6683 h 0.952764 c 0,0.096 0.177603,0.6437 0.533042,1.6444 0.355439,1.0006 0.533276,1.5461 0.533276,1.6369 z m -1.164406,-1.4241 c -0.287381,-0.867 -0.430965,-1.3357 -0.430965,-1.4063 h -0.04035 c 0,0.065 -0.148745,0.5342 -0.446,1.4063 z m 4.414268,1.4241 h -0.622429 c 0,-0.069 -0.231074,-0.4327 -0.693047,-1.0912 -0.483773,-0.694 -0.759443,-1.1684 -0.826523,-1.4239 h -0.04035 c 0.042,0.3679 0.06313,0.7006 0.06313,0.9981 0,0.415 0.01173,0.9208 0.03519,1.5172 h -0.620083 c 0.02508,-0.5208 0.03777,-1.0928 0.03777,-1.7162 0,-0.6132 -0.01267,-1.135 -0.03777,-1.5651 h 0.748397 c 0,0.089 0.207398,0.4446 0.622429,1.0661 0.441796,0.6602 0.695628,1.1081 0.761105,1.3434 h 0.03777 c -0.04033,-0.3747 -0.06053,-0.7107 -0.06053,-1.0081 0,-0.4552 -0.01175,-0.9225 -0.03519,-1.4014 h 0.630171 c -0.02372,0.4167 -0.03521,0.9385 -0.03521,1.5651 -2.54e-4,0.6313 0.01148,1.2033 0.03517,1.716 z m 3.652694,-1.7542 c 0,0.4772 -0.152949,0.8938 -0.458669,1.25 -0.305936,0.3564 -0.734359,0.5342 -1.285446,0.5342 -0.24869,0 -0.59146,-0.01 -1.02831,-0.03 0.0218,-0.5074 0.03285,-1.0797 0.03285,-1.7162 0,-0.6114 -0.01103,-1.1331 -0.03285,-1.5651 h 0.441092 c 0.07224,0 0.179695,-0 0.322594,-0.01 0.142625,-0 0.236001,-0.01 0.279639,-0.01 0.606495,0 1.04616,0.1513 1.319465,0.4537 0.27309,0.3025 0.409635,0.6652 0.409635,1.0887 z m -0.687906,0.1083 c 0,-0.3226 -0.09408,-0.5943 -0.28224,-0.8155 -0.188159,-0.2208 -0.475561,-0.3312 -0.861969,-0.3312 -0.07224,0 -0.171267,0.01 -0.297489,0.023 0.01666,0.3362 0.0251,0.6872 0.0251,1.0534 0,0.4017 0.0084,0.7998 0.02508,1.1947 a 1.6675918,1.6675918 0 0 0 0.32752,0.033 c 0.361305,0 0.628764,-0.1123 0.802632,-0.3366 0.173868,-0.2243 0.261359,-0.4977 0.261359,-0.8203 z m 4.056248,1.6459 h -0.74607 c -0.194964,-0.5948 -0.344393,-0.962 -0.448561,-1.1013 -0.104168,-0.1396 -0.272151,-0.2093 -0.503949,-0.2093 -0.0976,0 -0.19076,9e-4 -0.279659,0 0,0.4319 0.0075,0.8678 0.02276,1.308 H 50.11371 c 0.0218,-0.5075 0.03285,-1.0797 0.03285,-1.7162 0,-0.6114 -0.01103,-1.1332 -0.03285,-1.5651 h 0.435892 c 0.05044,0 0.155803,-0 0.316278,-0.01 0.160476,-0.01 0.308751,-0.01 0.444827,-0.01 0.771173,0 1.156878,0.2637 1.156878,0.7914 0,0.4183 -0.220068,0.7097 -0.660202,0.8746 v 0.038 c 0.169625,0.047 0.31837,0.1795 0.446,0.3967 0.127375,0.2175 0.299581,0.6161 0.516364,1.1959 z m -0.945022,-2.3187 c 0,-0.3344 -0.215141,-0.5016 -0.645187,-0.5016 -0.157894,0 -0.297509,0.012 -0.418315,0.035 0.01853,0.2604 0.02768,0.5999 0.02768,1.0182 0.09246,0 0.170584,0 0.234379,0 0.534214,2e-4 0.801439,-0.1854 0.801439,-0.5568 z m 4.557577,0.6175 c 0,0.5157 -0.157895,0.9433 -0.473899,1.2828 -0.316024,0.3393 -0.706655,0.5091 -1.171893,0.5091 -0.443634,0 -0.815047,-0.1558 -1.113944,-0.4676 -0.299132,-0.3115 -0.44858,-0.7078 -0.44858,-1.188 0,-0.5157 0.157894,-0.9434 0.473918,-1.2829 0.31579,-0.3393 0.706421,-0.5091 1.171874,-0.5091 0.443654,0 0.814831,0.1553 1.113963,0.4662 0.299132,0.3108 0.448561,0.7071 0.448561,1.1895 z m -0.695374,0.073 c 0,-0.3512 -0.08988,-0.636 -0.269571,-0.8544 -0.179948,-0.2185 -0.401657,-0.3275 -0.665363,-0.3275 -0.245405,0 -0.453742,0.11 -0.625009,0.3301 -0.171268,0.22 -0.257371,0.4981 -0.257371,0.8342 0,0.3494 0.09033,0.6337 0.270959,0.8531 0.180652,0.2194 0.401912,0.3289 0.664209,0.3289 0.245171,0 0.453742,-0.1105 0.62501,-0.3315 0.171268,-0.2208 0.257136,-0.4986 0.257136,-0.8329 z m 2.120434,1.6283 h -0.713224 c 0.02182,-0.5209 0.03285,-1.0929 0.03285,-1.7162 0,-0.6133 -0.01101,-1.1351 -0.03285,-1.5652 h 0.713224 c -0.02182,0.4235 -0.03284,0.9451 -0.03284,1.5652 0,0.6332 0.01103,1.2054 0.03284,1.7162 z m 3.652929,-1.7542 c 0,0.4772 -0.152968,0.8938 -0.458669,1.25 -0.305916,0.3564 -0.73434,0.5342 -1.285446,0.5342 -0.24869,0 -0.59146,-0.01 -1.02833,-0.03 0.02184,-0.5074 0.03287,-1.0797 0.03287,-1.7162 0,-0.6114 -0.01101,-1.1331 -0.03287,-1.5651 h 0.441093 c 0.07226,0 0.179714,-0 0.322593,-0.01 0.142664,-0 0.236021,-0.01 0.279679,-0.01 0.606475,0 1.04614,0.1513 1.319445,0.4537 0.27309,0.3025 0.409635,0.6652 0.409635,1.0887 z m -0.687886,0.1083 c 0,-0.3226 -0.09408,-0.5943 -0.28226,-0.8155 -0.188159,-0.2208 -0.475541,-0.3313 -0.861969,-0.3313 -0.07226,0 -0.171267,0.01 -0.297489,0.023 0.01666,0.3362 0.02508,0.6872 0.02508,1.0534 0,0.4017 0.0085,0.7998 0.0251,1.1947 a 1.6677287,1.6677287 0 0 0 0.32752,0.033 c 0.361285,0 0.628764,-0.1123 0.802612,-0.3366 0.173888,-0.2243 0.261399,-0.4977 0.261399,-0.8203 z m 5.534057,1.6459 h -0.806601 c 0,-0.111 -0.07648,-0.4252 -0.229686,-0.9427 h -1.164385 c -0.157895,0.5091 -0.236979,0.8232 -0.236979,0.9427 h -0.758251 c 0,-0.066 0.196117,-0.6033 0.58841,-1.613 0.392274,-1.0098 0.58841,-1.5661 0.58841,-1.6684 h 0.952765 c 0,0.096 0.177836,0.6438 0.533041,1.6445 0.355204,1.0006 0.533276,1.5461 0.533276,1.6369 z m -1.164386,-1.4241 c -0.287401,-0.867 -0.431238,-1.3357 -0.431238,-1.4063 h -0.04035 c 0,0.065 -0.14851,0.5342 -0.445746,1.4063 z m 4.10409,-0.9981 c 0,0.4017 -0.149234,0.6982 -0.447427,0.8897 -0.298194,0.1914 -0.663956,0.2873 -1.097541,0.2873 -0.07904,0 -0.135117,-0 -0.168902,-0 0,0.3161 0.0091,0.7325 0.02769,1.2501 h -0.708317 c 0.0218,-0.4854 0.03285,-1.0577 0.03285,-1.7162 0,-0.6048 -0.01101,-1.1266 -0.03285,-1.5651 h 0.438492 c 0.06217,0 0.181336,-0 0.357785,-0.01 0.176449,-0.01 0.329182,-0.01 0.458669,-0.01 0.319074,0 0.588879,0.072 0.808946,0.2168 0.220087,0.1446 0.33061,0.3635 0.33061,0.6574 z m -0.650114,0.1387 c 0,-0.3595 -0.238621,-0.5394 -0.715805,-0.5394 -0.119418,0 -0.245405,0.013 -0.377962,0.038 0.01853,0.3176 0.02769,0.6771 0.02769,1.0787 0.04198,0 0.09079,0 0.146164,0 0.613279,2e-4 0.919918,-0.1938 0.919918,-0.5821 z m 3.672871,-0.1387 c 0,0.4017 -0.149214,0.6982 -0.447173,0.8897 -0.298194,0.1914 -0.66419,0.2873 -1.097736,0.2873 -0.07908,0 -0.135137,-0 -0.168941,-0 0,0.3161 0.0092,0.7325 0.02768,1.2501 h -0.708297 c 0.02182,-0.4854 0.03286,-1.0577 0.03286,-1.7162 0,-0.6048 -0.01103,-1.1266 -0.03286,-1.5651 h 0.438492 c 0.06219,0 0.181356,-0 0.357785,-0.01 0.176429,-0.01 0.329163,-0.01 0.458669,-0.01 0.319055,0 0.588879,0.072 0.808947,0.2168 0.220047,0.1446 0.33057,0.3635 0.33057,0.6574 z m -0.650114,0.1387 c 0,-0.3595 -0.238601,-0.5394 -0.715785,-0.5394 -0.119418,0 -0.245425,0.013 -0.377962,0.038 0.01852,0.3176 0.02768,0.6771 0.02768,1.0787 0.04198,0 0.0908,0 0.146164,0 0.61326,2e-4 0.919899,-0.1938 0.919899,-0.5821 z m 5.592242,0.5823 c 0,0.5157 -0.157895,0.9433 -0.473919,1.2828 -0.316005,0.3395 -0.706655,0.5091 -1.171893,0.5091 -0.443634,0 -0.815047,-0.1558 -1.113924,-0.4676 -0.298917,-0.3115 -0.448581,-0.7078 -0.448581,-1.188 0,-0.5157 0.157895,-0.9434 0.473899,-1.2829 0.316024,-0.3395 0.706675,-0.5091 1.171893,-0.5091 0.443654,0 0.815047,0.1553 1.113944,0.4662 0.298897,0.3108 0.448581,0.7071 0.448581,1.1895 z m -0.695629,0.073 c 0,-0.3512 -0.08988,-0.636 -0.26957,-0.8544 -0.179695,-0.2185 -0.401658,-0.3275 -0.665344,-0.3275 -0.245425,0 -0.453761,0.11 -0.625029,0.3301 -0.171268,0.22 -0.257136,0.4981 -0.257136,0.8342 0,0.3494 0.09034,0.6337 0.270978,0.8531 0.180633,0.2194 0.401893,0.3289 0.663956,0.3289 0.245405,0 0.453742,-0.1105 0.625009,-0.3315 0.171502,-0.2208 0.257136,-0.4986 0.257136,-0.8329 z m 4.111597,1.6283 h -0.622429 c 0,-0.069 -0.230879,-0.4327 -0.693047,-1.0912 -0.483773,-0.694 -0.759463,-1.1684 -0.826543,-1.4239 h -0.04035 c 0.042,0.3679 0.06313,0.7006 0.06313,0.9981 0,0.415 0.01173,0.9208 0.03521,1.5172 h -0.620102 c 0.0251,-0.5208 0.03777,-1.0928 0.03777,-1.7162 0,-0.6133 -0.01263,-1.135 -0.03777,-1.5651 H 78.6713 c 0,0.089 0.207633,0.4446 0.622429,1.0661 0.442011,0.6602 0.695628,1.1081 0.761105,1.3434 h 0.03777 c -0.04035,-0.3747 -0.06053,-0.7107 -0.06053,-1.0082 0,-0.4551 -0.01173,-0.9225 -0.03521,-1.4013 h 0.630171 c -0.0237,0.4167 -0.03519,0.9385 -0.03519,1.5651 -2e-5,0.6313 0.01171,1.2033 0.03517,1.716 z"
     fill="#f9f9fa"
     id="path74"
     style="stroke-width:0.0195511" />
</svg>
